<?xml version="1.0" encoding="utf-8"?>
<!-- Generator: Adobe Illustrator 25.2.1, SVG Export Plug-In . SVG Version: 6.00 Build 0)  -->
<svg version="1.1" id="Layer_1" xmlns="http://www.w3.org/2000/svg" xmlns:xlink="http://www.w3.org/1999/xlink" x="0px" y="0px"
	 viewBox="0 0 2560 1440" style="enable-background:new 0 0 2560 1440;" xml:space="preserve">
<style type="text/css">
	.st0{fill:#354F2E;}
	.st1{fill:#3A5432;}
</style>
<g>
	<rect x="0" class="st0" width="2560" height="1440"/>
	<path class="st1" d="M2560,279c-0.1-17.6-2.1-43.6-12.1-71.8c-14.8-41.9-41.3-72.8-45.9-69.5c-4.2,3,13.5,30.5,17.2,77.4
		c1.7,21.1,0.5,45.9-3.6,63.5c-2.9,12.2-7.2,20.9-13.1,22.5c-8,2.2-18-8.8-28-22.9c-4.6-6.5-9.2-13.6-13.6-20.4
		c-7-11-10.7-16.4-12.5-23.4c-9.3-35,16.8-73.4,14.6-74.9c-1.2-0.8-9.6,9.5-22.8,35.9c-22.8,45.4-31.1,81-34.8,79.9
		c-2.3-0.7,0.6-14.5,0.2-35.1c-0.7-39.2-12.6-73.1-16.3-72.3c-3.2,0.6,3.6,26.9-3.1,60.4c-3.5,17.7-10.3,34.9-18,48.8
		c-11.7,21.1-25.5,34.8-33.4,31.7c-6.4-2.5-9-15.8-9.7-32.1c-0.8-19.1,1-42.4,2.5-57.4c5.3-53.5,26.8-89.1,22.5-92
		c-3.9-2.7-25.8,24.3-40,60.4c-14,35.4-15.7,67-18.4,66.6c-2.2-0.3-0.1-19.5-2.3-42c-4.9-49.2-28-89.1-33.3-87.1
		c-3.2,1.2,10.1,36.4,4.6,82.6c-3.1,26.2-10.5,50.7-17.9,68.1c-7.1,16.8-14.3,27-17.7,25.8c-3-1-0.7-10.6,0.4-26
		c0.9-12.1,1.2-27.7-2.4-45.5c-11.8-59.3-47.5-101.2-52.7-97.6c-5,3.4,23.9,44.9,25.6,111.3c0.3,10.9-0.2,21.5-1.2,31.6
		c-4.6,45.1-19.7,78.3-23.2,77.4c-3.4-0.9,7-33,5.6-77.5c-0.3-9.2-1.1-19-2.6-29.2c-13-87.4-71.9-146.6-76.5-143
		c-2.8,2.2,11.9,29.5,35,103.9c10.2,32.9,14.4,50.6,11.9,68c-0.4,2.4-0.9,4.9-1.5,7.4c-6.8,26.7-27.5,49.3-36.9,44.9
		c-6.8-3.2-7-20.6-6.4-52.7c0-1.5,0.1-3,0.1-4.6c0.9-49,6.8-79.1,3.8-80.1c-3.3-1-10.2,34.2-31.3,75.5c-1.5,3-3.1,6-4.7,8.8
		c-18.6,33.8-39.1,57.2-42.4,54.6c-3.1-2.4,13.5-23.7,15.9-54.9c0.2-2.4,0.3-4.9,0.3-7.4c-0.1-48.8-37.7-88.2-41.6-85.4
		c-3.1,2.2,16.5,27.3,16.1,65.3c-0.1,9.4-1.4,18.6-3.6,27.2c-10.2,41.1-39.2,71.4-46.3,67.2c-6.1-3.7,8.7-31.1,8.8-67.6
		c0-10.6-1.1-21.9-4.4-33.6c-12-42.7-45.9-69.6-47.1-68.4c-0.7,0.7,8.9,10.4,16.3,28.8c10.6,26.4,11.4,57.3,7.8,72.8
		c-1.3,5.6-3.2,9.2-5.5,9.8c-3.1,0.8-6.9-3.8-10.5-10c-4.6-8-8.9-18.5-10.6-22.9c-21.6-53.5-13.6-105.6-17.2-106
		c-2.6-0.3-6.5,27.9-11.5,57.9c-2.6,15.2-8,47.2-13.1,70.4c-3.5,15.8-6.9,27.5-9.2,27.3c-2.2-0.3-3.6-11.6-4-27.4
		c-0.5-14.9-0.2-33.7,0.7-51c3.8-72.7,18.8-118.1,14.6-119.8c-4.1-1.7-25.6,40.3-38.1,89.8c-5.2,20.6-8.5,41.4-13.2,41.2
		c-4.2-0.2-6.7-17.1-7.8-23.6c-11.5-67.4-65.1-129.1-68.9-126.5c-1.1,0.8,16.2,28.5,25.6,66.4c11.2,44.7,11.2,89.6,7.3,122.7
		c-3.7,31.1-10.9,51.7-15.7,51.5c-5-0.1-9.4-22.5-13.2-51.8c-7.3-56.3-12.6-138.2-15.8-137.9c-2.8,0.3,7.7,63.1-8.3,137.6
		c-3.6,16.7-8.5,33.9-15.2,51.2c-11.3,29.2-31.2,67.7-38.8,64.6c-5.2-2.2-3.7-23.4-3.2-30.7c1.6-24.3,9.2-41.8,9.5-43.8
		c2.3-14.1,3.9-28.1,4.8-41.6c6.1-87.2-13-158.6-19.8-158.4c-4.4,0.2-1.4,129.7-13.1,130.9c-11.5,1.3-29.8-121.9-35.4-120.7
		c-3.4,0.7,8.4,44.4-0.9,98.2c-3.1,17.8-8,34.4-13.7,49.1c-7.3,19.2-15.8,35.3-22.8,47.3c-1.3,3.6-2.9,7-4.7,10.3
		c-3.7,6.8-8.7,13.4-9.2,13c-0.6-0.5,5.6-8.9,13.9-23.3c5.5-14.4,7.4-30.9,7.2-47.5c-0.8-50.4-22.1-102.1-29.3-101.5
		c-3.2,0.3,1.4,84.4-3.6,101.1c-0.5,1.8-1.1,2.8-1.9,2.9c-0.9,0.1-1.9-0.9-2.9-2.9c-4-7.5-9.2-28.4-11.6-48.4
		c-9.3-76.5,20.3-140.3,18.8-141c-1.1-0.5-17.4,31.1-31,88.1c-8.9,37.3-13.4,72.2-16,100.9c-3.9,45.2-2.8,75.2-5.5,75.2
		c-2.8,0.1-0.5-33-10.1-75.4c-2.1-9.3-4.8-19.1-8.2-29.1c-23.7-68.8-70.6-110.6-73.2-108.1c-1.9,1.8,19.6,25.4,36.4,70.2
		c7.8,20.8,14,44.4,17.6,66.8c6.5,39.9,5.1,75.7-8.7,84.4c-14.4,9.1-41.2-12.1-55.7-33c-11.4-16.4-17.3-35.6-20.3-52.3l-2.5,0
		c1.2,32.3,1.8,71.5-4,72.9c-5.8,1.4-18.3-35.2-30.1-73.3c-12.7-41-24.6-83.8-26.6-83.1c-1.9,0.7,14.9,41.2,12.6,83
		c-0.8,13.3-3.4,26.6-9.2,38.9c-19.5,41.2-68.8,58.2-77.4,46.4c-7.9-11,25.4-38.7,37.3-85.8c1.9-7.4,3.2-15.3,3.8-23.7
		c5.9-87.3-76.4-166-80.6-162.5c-2.2,1.8,17.1,25,28.2,71.9c10.6,45,9.2,92.3,3.3,113.9c-1.9,7.2-4.4,11.6-7,12
		c-3.1,0.5-6.4-4.2-9.9-12.2c-5.6-12.6-11.8-33.5-18.1-55c-25.5-86.6-28.7-153.1-32.7-153.1h0c-3,0.3-4.1,37.3-2.7,75.9
		c2.9,78.5,14.2,107,3.2,116.3c-20.6,17.4-89.2-56.9-93.1-51.2c-2.2,3.1,21.2,21.5,33.7,54.8c1.4,3.7,2.6,7.5,3.6,11.3
		c12.5,45.4,2.2,97.3-10.2,99.8c-14.7,2.9-36.5-63.3-45.5-97.9c-0.2-0.8-0.4-1.6-0.6-2.5c-9.3-36.5-13.5-72.3-15.4-95.3
		c-0.3,7.7-1.3,16.5-3.8,25.5c-4.6,16.4-16.3,41.3-27.5,40.3c-16.7-1.5-27.3-60-32.2-90.3c1.5,10.9,3,25.9,2.3,42.3
		c-1.1,25.4-7.5,60.9-15.5,61.4c-11.6,0.7-26.3-73.9-35.6-127.2c2.9,27.8,2.1,62.6-12.1,93.7c-9.2,20-23.5,37.6-37.2,47.9
		c-11.3,8.5-22.2,12.1-29.3,8c-2.7-1.6-4.8-4.5-6.4-8.4c-10.7-25.8,0.8-94.6-1.7-95c-2.2-0.3-3.4,50.9-13.2,94.9
		c-6.6,29.9-17.2,56.5-34.6,60.9c-14.1,3.6-32.9-4.7-40.6-20.5c-5.6-11.6-4.8-26.2-1-41.2c8.6-34.1,32.6-69.4,29.9-71.5
		c-3.2-2.5-33.7,53.5-42.7,48.7c-11.8-6.3,18.3-114.6,12.8-116.7c-3.8-1.5-14.4,50.5-32,51.5c-24.6,1.4-47.3-98.4-50.6-97.1
		c-2,0.8,9.6,34.1,12.7,74.9c3.5,46.3-5,89.8-12.4,109.3c-2.7,7.1-5.2,11-7,10.8c-1.7-0.2-2.3-4.1-2.7-10.9c-0.7-12.3-0.9-34.1-6-61
		c-16.1-85.1-66.2-140.3-70.4-137.2c-3.9,2.9,34.5,52.6,28.6,119.9c-3.3,37.6-20,76.3-32.6,75.1c-19.2-1.8-27-95.6-30.6-94.7
		c-5.2,1.4,3.8,60.8,4.9,96.9c0.5,14.9-0.4,25.9-4.2,27.2c-4.5,1.5-12.1-11-20.1-27.4c-14.1-28.8-29.7-69.7-33.2-68
		c-2.5,1.2,6.9,22.6,6.7,50c0,6-0.5,11.9-1.4,17.7c-7.5,49.1-41.9,87-47.9,83.1c-5.1-3.3,15.5-34,15-83.5c0-1.2,0-2.3-0.1-3.5
		c-2-67-41.8-113.9-43.1-113.1c-1.1,0.7,24,38.5,12.4,65.5c-3.3,7.7-10.9,17.4-18.2,16.4c-15.5-2.2-24.3-51-28.7-83.4
		c0.9,10,1.4,21.8,0.7,34.2c-1.8,31.7-11.3,66.6-21.8,82.9c-3.9,6.1-7.9,9.7-11.7,9.5c-3.6-0.2-7-3.8-10.1-9.7
		c-17.3-32.7-27.4-136.9-28.5-136.6c-1.5,0.5,7.5,31.8,4.7,75.2c-1.4,22.1-5.7,44.7-10.7,61c-4.4,14.2-9.4,23.5-13.7,23.2
		c-4.8-0.4-5.8-13.6-9.5-23.4c-0.2-0.5-0.4-0.9-0.5-1.3c-31.6-75.2-66.3-130.3-70.2-127.8c-3.7,2.5,33.7,52.1,18.6,96.7
		c-4.2,12.2-11.2,23.1-19,31.7c-15.7,17.2-34.9,25.7-42.3,19.3c-4.1-3.5-4.3-11.2-3.4-19.7c0.6-5.4,1.6-11.1,2.4-16.3
		c14.1-92.7-17.5-180.3-20.9-179.9c-1.2,0.2,6.2,52.3-4.8,118c-5.4,31.9-15.1,66.9-22.6,77.8c-1.6,2.4-3.2,3.6-4.5,3.4
		c-1.2-0.2-2.1-1.4-3-3.4c-6.6-16-4-82.2-8.7-82.5c-4-0.2-8.6,46.3-13.3,82.3c-3,22.7-5.9,41.2-8.7,41.1c-2.7-0.1-3.9-17.8-5.7-41.2
		c-0.3-4.3-0.7-8.9-1.1-13.5C81.6,150.1,65.5,79.9,61.1,80.6c-4.2,0.6,11.2,62.3-15.5,116.8C32.8,223.4,16.2,243.1,0,254v244.1
		c3.9,8.3,8.3,13.8,13.3,14.3c11.2,1,22.9-23.9,27.5-40.3c2.5-9.1,3.6-17.9,3.8-25.5c-1.1-13.6-1.5-22.6-1.6-24.6
		c0.3,2.1,2,11.7,1.6,24.6c1.9,22.9,6,58.8,15.4,95.3c0.2,0.8,0.4,1.6,0.6,2.5c9,34.6,30.9,100.8,45.5,97.9
		c12.3-2.4,22.6-54.4,10.2-99.8c-1-3.8-2.2-7.6-3.6-11.3c-12.5-33.3-35.8-51.7-33.6-54.8c3.9-5.7,72.5,68.6,93.1,51.2
		c11.1-9.3-0.3-37.8-3.2-116.3c-1.4-38.6-0.3-75.6,2.7-75.9c4-0.4,7.2,66.3,32.7,153.1c6.3,21.5,12.5,42.4,18.1,55
		c3.5,8,6.9,12.6,9.9,12.2c2.7-0.4,5.1-4.8,7-12c5.9-21.6,7.3-68.9-3.3-113.9c-11.1-46.9-30.3-70.1-28.1-71.9
		c4.2-3.5,86.5,75.2,80.6,162.5c-0.6,8.4-1.9,16.3-3.8,23.7c-11.9,47.1-45.2,74.8-37.3,85.8c8.5,11.8,57.8-5.1,77.4-46.4
		c5.8-12.3,8.5-25.7,9.2-38.9c2.4-41.8-14.5-82.3-12.6-83c1.9-0.7,13.9,42.1,26.5,83.1c11.8,38.1,24.3,74.7,30.1,73.3
		c5.8-1.4,5.1-40.7,4-72.9c-0.8-22.8-1.9-42.1-1.2-42.2c0.7,0-0.6,18.7,3.7,42.2c3,16.7,8.9,35.8,20.3,52.3
		c14.5,20.9,41.2,42.1,55.7,33c13.8-8.7,15.2-44.5,8.7-84.4c-3.6-22.3-9.8-45.9-17.6-66.8c-16.8-44.8-38.3-68.4-36.5-70.2
		c2.6-2.6,49.6,39.2,73.2,108.1c3.4,10,6.1,19.8,8.2,29.1c9.5,42.4,7.3,75.5,10.1,75.4c2.7-0.1,1.5-30,5.5-75.2
		c2.5-28.7,7.1-63.6,16-100.9c13.6-57,29.9-88.6,31-88.1c1.5,0.7-28.1,64.5-18.8,141c2.4,20.1,7.5,40.9,11.6,48.4
		c1.1,2,2.1,3,2.9,2.9c0.8-0.1,1.4-1.1,1.9-2.9c5-16.7,0.5-100.9,3.6-101.1c7.1-0.6,28.5,51.1,29.3,101.5
		c0.3,16.6-1.7,33.1-7.2,47.5c7-12,15.5-28.2,22.8-47.4c5.7-14.8,10.6-31.3,13.7-49.1c9.3-53.8-2.5-97.5,0.9-98.2
		c5.6-1.2,23.9,122,35.4,120.7c11.7-1.3,8.7-130.8,13.1-130.9c6.8-0.3,25.8,71.2,19.8,158.4c-0.9,13.6-2.5,27.5-4.8,41.6
		c-0.3,2.1-7.9,19.5-9.5,43.8c-0.5,7.3-2,28.6,3.2,30.7c7.5,3.2,27.5-35.4,38.8-64.6c6.7-17.3,11.6-34.5,15.1-51.2
		c16-74.5,5.5-137.3,8.3-137.6c3.2-0.4,8.4,81.6,15.8,137.9c3.8,29.3,8.2,51.7,13.2,51.8c4.8,0.1,12-20.5,15.7-51.5
		c3.9-33.1,3.9-78-7.3-122.7c-9.5-37.8-26.8-65.6-25.6-66.4c3.8-2.6,57.4,59.1,68.9,126.5c1.1,6.4,3.6,23.4,7.8,23.6
		c4.7,0.2,8-20.6,13.2-41.2c12.5-49.6,33.9-91.5,38.1-89.8c4.2,1.7-10.8,47-14.6,119.8c-0.9,17.4-1.2,36.2-0.7,51
		c0.5,15.8,1.8,27.1,4,27.4c2.3,0.3,5.7-11.5,9.2-27.3c5.2-23.2,10.5-55.2,13.1-70.4c5.1-30,8.9-58.2,11.5-57.9
		c3.6,0.4-4.4,52.5,17.2,106c1.8,4.4,6,14.9,10.6,22.9c3.6,6.2,7.4,10.9,10.5,10c2.3-0.6,4.2-4.2,5.5-9.8
		c3.7-15.5,2.8-46.5-7.8-72.8c-7.4-18.4-17-28.1-16.3-28.8c1.2-1.3,35.2,25.6,47.1,68.4c3.3,11.7,4.5,23,4.4,33.6
		c-0.2,36.5-15,63.9-8.8,67.6c7,4.2,36-26.1,46.3-67.2c2.2-8.7,3.5-17.8,3.6-27.2c0.4-38-19.1-63.1-16.1-65.3
		c4-2.8,41.6,36.6,41.6,85.4c0,2.5-0.1,5-0.3,7.4c-2.4,31.2-19,52.5-15.9,54.9c3.3,2.6,23.8-20.9,42.4-54.6c1.6-2.9,3.2-5.8,4.7-8.8
		c21.2-41.4,28-76.6,31.3-75.5c3,1-2.9,31.1-3.8,80.1c0,1.6-0.1,3.1-0.1,4.6c-0.6,32.1-0.5,49.5,6.4,52.7
		c9.4,4.4,30.1-18.2,36.9-44.9c0.6-2.5,1.1-4.9,1.5-7.4c2.6-17.3-1.7-35-11.9-68c-23-74.4-37.8-101.7-35-103.9
		c4.6-3.6,63.5,55.6,76.5,143c1.5,10.2,2.3,19.9,2.6,29.2c1.3,44.6-9,76.6-5.6,77.5c3.5,0.9,18.7-32.3,23.2-77.4
		c1-10,1.5-20.6,1.2-31.6c-1.7-66.3-30.6-107.8-25.6-111.3c5.2-3.5,40.9,38.3,52.7,97.6c3.5,17.8,3.3,33.4,2.4,45.5
		c-1.2,15.3-3.4,24.9-0.4,26c3.3,1.2,10.5-9,17.7-25.8c7.4-17.4,14.8-41.9,17.9-68.1c5.4-46.1-7.8-81.4-4.6-82.6
		c5.3-2,28.4,37.9,33.3,87.1c2.2,22.5,0.2,41.7,2.3,42c2.8,0.4,4.5-31.2,18.4-66.6c14.2-36.1,36.1-63.1,40.1-60.4
		c4.3,3-17.2,38.5-22.5,92c-1.5,15-3.3,38.3-2.5,57.4c0.7,16.3,3.3,29.6,9.7,32.1c8,3.1,21.8-10.6,33.4-31.7
		c7.7-13.9,14.4-31.1,18-48.8c6.7-33.6-0.1-59.8,3.1-60.4c3.7-0.7,15.6,33.1,16.2,72.3c0.4,20.6-2.5,34.4-0.2,35.1
		c3.7,1.1,12-34.4,34.8-79.9c13.3-26.4,21.7-36.7,22.9-35.9c2.2,1.5-23.9,39.8-14.6,74.9c1.9,7,5.5,12.4,12.5,23.4
		c4.4,6.8,9,13.9,13.6,20.4c10,14.1,20,25.1,28,22.9c5.9-1.6,10.2-10.3,13.1-22.5c4.2-17.6,5.3-42.4,3.7-63.5
		c-3.7-46.9-21.4-74.4-17.2-77.4c4.6-3.3,31.2,27.6,45.9,69.5c9.9,28.1,11.9,53.9,12.1,71.5c16.2-10.9,32.8-30.5,45.5-56.6
		c26.7-54.5,11.3-116.3,15.5-116.8c4.5-0.6,20.6,69.5,28.4,160.8c0.4,4.7,0.8,9.2,1.1,13.5c1.8,23.4,3,41.1,5.7,41.2
		c2.8,0.1,5.8-18.4,8.7-41.1c4.7-36,9.3-82.6,13.3-82.3c4.7,0.3,2.1,66.5,8.7,82.5l7.5,0.1c7.5-10.8,17.2-45.8,22.6-77.8
		c11-65.7,3.6-117.9,4.8-118c3.3-0.4,35,87.2,20.9,179.9c-0.8,5.3-1.8,11-2.4,16.4c-0.9,8.6-0.7,16.3,3.4,19.7
		c7.4,6.4,26.6-2.1,42.3-19.3c7.9-8.6,14.9-19.5,19-31.7c15.1-44.6-22.4-94.2-18.6-96.7c3.9-2.6,38.5,52.6,70.2,127.8
		c0.2,0.4,0.4,0.9,0.5,1.3c3.7,9.8,4.7,23,9.5,23.4c4.2,0.4,9.3-9,13.7-23.2c5.1-16.3,9.3-38.9,10.7-61c2.8-43.4-6.2-74.8-4.7-75.2
		c1.1-0.4,11.2,103.9,28.5,136.6c3.1,5.9,6.5,9.5,10.1,9.7c3.8,0.2,7.8-3.3,11.7-9.5c10.5-16.3,20-51.2,21.8-82.9
		c0.7-12.4,0.2-24.2-0.7-34.3c-1.2-9-2.1-16.7-2.7-21.9c0.8,5,1.9,12.7,2.7,21.9c4.4,32.4,13.2,81.3,28.7,83.5
		c7.4,1,14.9-8.7,18.2-16.4c11.6-27-13.5-64.8-12.4-65.5c1.3-0.8,41.1,46,43.1,113.1c0,1.2,0.1,2.4,0.1,3.5
		c0.5,49.5-20.2,80.2-15.1,83.5c6,3.9,40.4-34.1,47.9-83.1c0.9-5.8,1.4-11.7,1.4-17.7c0.2-27.4-9.2-48.8-6.7-50
		c3.4-1.7,19.1,39.2,33.2,68c8.1,16.4,15.6,28.9,20.1,27.4c3.8-1.3,4.7-12.2,4.2-27.2c-1.1-36.1-10.1-95.5-4.9-96.9
		c3.6-1,11.4,92.8,30.6,94.7c12.7,1.2,29.4-37.5,32.7-75.1c5.9-67.3-32.5-117-28.6-119.9c4.2-3.1,54.4,52.1,70.4,137.2
		c5.1,26.9,5.2,48.8,6,61.1c0.4,6.8,1,10.7,2.7,10.9c1.8,0.2,4.3-3.7,7-10.8c7.4-19.5,15.9-63,12.4-109.3
		c-3.1-40.8-14.7-74.1-12.7-74.9c3.4-1.4,26.1,98.4,50.7,97.1c17.5-1,28.2-52.9,32-51.5c5.5,2.2-24.7,110.4-12.9,116.7
		c9,4.8,39.5-51.2,42.7-48.7c2.6,2-21.3,37.4-29.9,71.5c-3.8,14.9-4.6,29.6,1,41.2c7.6,15.8,26.5,24,40.6,20.5
		c17.4-4.4,28-30.9,34.6-60.9c9.7-43.9,11-95.2,13.2-94.9c2.5,0.4-8.9,69.1,1.7,95c1.6,3.9,3.7,6.8,6.4,8.4c7.1,4.1,17.9,0.5,29.3-8
		c13.7-10.3,28.1-27.9,37.2-47.9c14.2-31,15-65.7,12.1-93.5c9.4,53.3,24,127.7,35.6,127c7.9-0.5,14.4-36,15.4-61.4
		c0.7-16.3-0.7-31.2-2.2-42.1c-0.5-3.1-0.9-5.9-1.3-8.3c0.4,2.4,0.9,5.2,1.3,8.3c3.4,21.2,9.6,56.2,18.8,75.7V279z M43,421.5
		c0,0.1,0,0.2,0,0.4C43.1,421.7,43,421.5,43,421.5z M1951.9,414.2c0.1,0,0.4,2.4,0.9,6.5C1952.1,416.6,1951.7,414.2,1951.9,414.2z
		 M2485.4,382.3c-1.7-7.2-2.8-11.4-2.3-11.6C2483.3,370.7,2484.1,375,2485.4,382.3c2.2,9.4,5.3,23.9,7,41.1
		C2489.4,406.6,2487,391.9,2485.4,382.3z M2538.3,429c0.2,0,0.7,3.7,1.7,9.6C2538.9,432.6,2538.1,429,2538.3,429z"/>
	<path class="st1" d="M2558.5,926.3c-11.4-16.4-17.3-35.5-20.3-52.3l-2.5,0c1.2,32.3,1.8,71.5-4,72.9c-5.8,1.4-18.3-35.1-30.1-73.3
		c-12.7-41-24.6-83.8-26.6-83.1c-1.9,0.7,14.9,41.2,12.6,83c-0.8,13.3-3.4,26.6-9.2,38.9c-19.5,41.2-68.8,58.2-77.4,46.4
		c-7.9-11,25.4-38.7,37.3-85.8c1.9-7.4,3.2-15.3,3.8-23.8c5.9-87.3-76.4-166-80.6-162.5c-2.2,1.8,17.1,25,28.1,71.9
		c10.6,45,9.2,92.3,3.3,113.9c-2,7.2-4.4,11.6-7.1,12c-3.1,0.5-6.4-4.2-9.9-12.2c-5.6-12.6-11.8-33.5-18.1-55
		c-25.5-86.6-28.7-153.1-32.7-153.1h0c-3,0.3-4.1,37.3-2.7,75.9c2.9,78.5,14.2,107,3.1,116.3c-20.6,17.4-89.1-56.9-93.1-51.2
		c-2.2,3.1,21.2,21.5,33.6,54.8c1.4,3.7,2.6,7.5,3.6,11.3c12.5,45.4,2.2,97.3-10.1,99.8c-14.7,2.9-36.5-63.3-45.5-97.9
		c-0.2-0.8-0.4-1.6-0.6-2.5c-9.3-36.5-13.5-72.3-15.4-95.2c-0.3,7.7-1.3,16.5-3.8,25.5c-4.6,16.4-16.3,41.3-27.5,40.3
		c-16.7-1.5-27.3-60-32.1-90.2c1.5,10.9,3,25.9,2.3,42.3c-1.1,25.4-7.5,60.9-15.5,61.4c-11.6,0.7-26.3-73.9-35.6-127.2
		c2.9,27.8,2.1,62.6-12.1,93.7c-9.2,20-23.6,37.6-37.2,47.9c-11.3,8.5-22.2,12.1-29.3,8c-2.7-1.6-4.8-4.5-6.4-8.4
		c-10.7-25.9,0.8-94.6-1.7-95c-2.2-0.3-3.4,50.9-13.2,94.9c-6.6,30-17.2,56.5-34.6,60.9c-14.1,3.5-32.9-4.7-40.6-20.5
		c-5.6-11.5-4.8-26.2-1-41.2c8.6-34.1,32.6-69.4,29.9-71.5c-3.2-2.5-33.7,53.5-42.7,48.7c-11.8-6.3,18.3-114.6,12.8-116.7
		c-3.8-1.5-14.4,50.5-32,51.5c-24.6,1.4-47.3-98.4-50.6-97.1c-2,0.8,9.6,34.1,12.7,74.9c3.5,46.3-5,89.8-12.4,109.3
		c-2.7,7.1-5.2,11-7,10.8c-1.7-0.2-2.3-4.1-2.7-10.9c-0.7-12.3-0.9-34.1-6-61c-16.1-85.1-66.2-140.3-70.4-137.2
		c-3.9,2.9,34.5,52.6,28.6,119.9c-3.3,37.6-20,76.3-32.7,75.1c-19.2-1.8-27-95.6-30.6-94.7c-5.2,1.4,3.8,60.8,4.9,96.9
		c0.4,14.9-0.4,25.9-4.2,27.2c-4.5,1.5-12.1-11-20.1-27.4c-14.1-28.8-29.7-69.7-33.2-68c-2.5,1.2,6.9,22.6,6.7,50
		c-0.1,6-0.6,11.9-1.4,17.7c-7.5,49.1-41.9,87-47.9,83.1c-5.1-3.3,15.5-34,15.1-83.5c0-1.2,0-2.3-0.1-3.5
		c-2-67-41.8-113.9-43.1-113.1c-1.1,0.7,24,38.5,12.4,65.5c-3.3,7.7-10.9,17.4-18.2,16.4c-15.6-2.2-24.3-51-28.7-83.4
		c0.9,10,1.4,21.9,0.7,34.2c-1.8,31.7-11.3,66.6-21.8,82.9c-3.9,6.1-7.9,9.7-11.7,9.5c-3.6-0.2-7-3.8-10.1-9.7
		c-17.3-32.7-27.4-136.9-28.5-136.6c-1.5,0.5,7.5,31.8,4.7,75.2c-1.4,22.1-5.7,44.7-10.7,61c-4.4,14.2-9.5,23.5-13.7,23.2
		c-4.8-0.4-5.8-13.6-9.5-23.4c-0.2-0.5-0.3-0.9-0.5-1.3c-31.6-75.2-66.3-130.4-70.2-127.8c-3.7,2.5,33.7,52.1,18.6,96.7
		c-4.2,12.2-11.2,23.1-19,31.7c-15.7,17.2-34.9,25.7-42.3,19.3c-4.1-3.5-4.3-11.2-3.4-19.8c0.6-5.4,1.6-11.1,2.4-16.4
		c14.1-92.7-17.5-180.3-20.9-179.9c-1.2,0.2,6.2,52.3-4.8,118c-5.4,31.9-15.1,66.9-22.6,77.8c-1.6,2.4-3.2,3.6-4.6,3.4
		c-1.2-0.2-2.1-1.4-3-3.4c-6.6-16-4-82.2-8.7-82.5c-4-0.2-8.6,46.3-13.3,82.3c-3,22.7-5.9,41.2-8.7,41c-2.7-0.1-3.9-17.8-5.7-41.2
		c-0.3-4.3-0.7-8.9-1.1-13.5c-7.8-91.2-23.9-161.4-28.4-160.7c-4.2,0.6,11.2,62.3-15.5,116.8c-12.8,26-45.5,81.6-45.5,81.6
		c-0.1-17.6-2.1-43.6-12.1-71.8c-14.8-41.9-41.3-72.8-45.9-69.5c-4.1,3,13.5,30.5,17.2,77.4c1.7,21.1,0.5,45.9-3.7,63.5
		c-2.9,12.2-7.2,20.9-13.1,22.5c-8,2.2-18-8.8-28-22.9c-4.6-6.5-9.2-13.6-13.6-20.4c-7.1-10.9-10.7-16.4-12.5-23.4
		c-9.3-35,16.8-73.4,14.6-74.9c-1.2-0.8-9.6,9.5-22.8,35.9c-22.8,45.4-31.1,81-34.8,79.9c-2.3-0.7,0.6-14.5,0.2-35.1
		c-0.7-39.2-12.6-73-16.3-72.3c-3.2,0.6,3.6,26.8-3.1,60.4c-3.5,17.7-10.3,34.9-18,48.8c-11.7,21.1-25.5,34.8-33.4,31.7
		c-6.4-2.5-9-15.8-9.7-32.1c-0.8-19.1,1-42.4,2.5-57.4c5.3-53.5,26.8-89,22.5-92c-3.9-2.7-25.8,24.3-40,60.4
		c-14,35.4-15.7,67-18.4,66.6c-2.2-0.3-0.1-19.5-2.3-42c-4.9-49.2-28-89.1-33.3-87.1c-3.2,1.2,10,36.4,4.6,82.6
		c-3.1,26.2-10.5,50.7-17.9,68.1c-7.2,16.8-14.3,27-17.7,25.8c-3-1.1-0.7-10.6,0.4-26c0.9-12.1,1.2-27.7-2.4-45.5
		c-11.8-59.3-47.5-101.2-52.7-97.6c-5,3.4,23.9,44.9,25.7,111.2c0.3,10.9-0.2,21.5-1.2,31.6c-4.6,45.1-19.7,78.3-23.2,77.4
		c-3.4-0.9,7-33,5.6-77.5c-0.3-9.2-1.1-19-2.6-29.2c-13-87.4-71.9-146.6-76.5-143c-2.8,2.2,11.9,29.5,35,103.9
		c10.2,32.9,14.4,50.6,11.9,68c-0.4,2.5-0.8,4.9-1.5,7.4c-6.8,26.7-27.5,49.3-36.9,44.9c-6.8-3.2-7-20.6-6.4-52.7c0-1.5,0-3,0.1-4.6
		c0.9-49,6.8-79.1,3.8-80.1c-3.3-1-10.2,34.2-31.3,75.5c-1.5,3-3.1,6-4.7,8.8c-18.6,33.8-39.1,57.2-42.4,54.6
		c-3.1-2.4,13.5-23.7,15.9-54.9c0.2-2.4,0.3-4.9,0.3-7.4c-0.1-48.8-37.7-88.2-41.6-85.4c-3.1,2.2,16.5,27.3,16.1,65.3
		c-0.1,9.4-1.4,18.6-3.6,27.2c-10.2,41.1-39.2,71.4-46.3,67.2c-6.2-3.7,8.7-31.1,8.8-67.6c0-10.6-1.1-21.9-4.4-33.6
		c-12-42.8-45.9-69.6-47.1-68.4c-0.7,0.7,8.9,10.4,16.3,28.8c10.6,26.4,11.4,57.3,7.8,72.8c-1.3,5.6-3.2,9.2-5.5,9.9
		c-3.1,0.8-6.9-3.8-10.5-10c-4.6-8-8.9-18.5-10.6-22.9c-21.6-53.5-13.6-105.6-17.2-106c-2.6-0.3-6.5,28-11.5,57.9
		c-2.6,15.2-8,47.2-13.1,70.4c-3.5,15.8-6.9,27.5-9.2,27.3c-2.2-0.3-3.5-11.6-4-27.4c-0.5-14.9-0.2-33.7,0.7-51
		c3.8-72.7,18.8-118.1,14.6-119.8c-4.1-1.7-25.6,40.2-38.1,89.8c-5.2,20.6-8.5,41.4-13.2,41.2c-4.2-0.2-6.7-17.1-7.8-23.6
		C402,748,348.4,686.2,344.6,688.9c-1.1,0.8,16.2,28.5,25.6,66.4c11.2,44.7,11.2,89.6,7.3,122.7c-3.7,31.1-10.9,51.7-15.7,51.5
		c-5-0.1-9.4-22.5-13.2-51.8c-7.3-56.3-12.6-138.2-15.8-137.9c-2.8,0.3,7.7,63.1-8.3,137.6c-3.6,16.7-8.5,33.9-15.2,51.2
		c-11.3,29.2-31.2,67.7-38.8,64.6c-5.2-2.2-3.7-23.4-3.2-30.7c1.7-24.3,9.2-41.8,9.5-43.9c2.3-14.1,3.9-28.1,4.8-41.6
		c6.1-87.2-13-158.6-19.8-158.4c-4.4,0.2-1.4,129.7-13.1,130.9c-11.5,1.3-29.8-121.9-35.4-120.7c-3.4,0.7,8.4,44.4-0.9,98.2
		c-3.1,17.8-8.1,34.4-13.7,49.1c-7.3,19.2-15.8,35.3-22.8,47.3c-1.3,3.6-2.9,7-4.7,10.3c-3.7,6.8-8.7,13.4-9.2,13
		c-0.6-0.5,5.5-8.9,13.9-23.3c5.5-14.4,7.4-30.9,7.2-47.5c-0.8-50.4-22.1-102.1-29.3-101.5c-3.2,0.3,1.4,84.4-3.6,101.1
		c-0.5,1.8-1.2,2.8-1.9,2.9c-0.8,0.1-1.8-0.9-2.9-2.9c-4-7.5-9.2-28.4-11.6-48.4c-9.3-76.5,20.4-140.3,18.8-141
		c-1.1-0.5-17.4,31.1-31,88.1c-8.9,37.3-13.4,72.2-16,100.9c-4,45.2-2.8,75.2-5.5,75.2c-2.8,0.1-0.5-33-10.1-75.4
		c-2.1-9.3-4.8-19.1-8.2-29.1C58.4,777.2,11.5,735.4,8.9,737.9c-1.9,1.8,19.6,25.4,36.4,70.2c7.8,20.8,14,44.4,17.6,66.8
		c6.5,39.9,5.1,75.7-8.7,84.4c-13.9,8.8-39.3-10.6-54.1-30.8v220.4c5.2-13.6,14-39.4,29.1-69.5c13.3-26.4,21.7-36.8,22.8-35.9
		c2.2,1.5-23.9,39.8-14.6,74.9c1.9,7,5.5,12.4,12.5,23.4c4.4,6.8,9,13.9,13.6,20.4c10,14.1,20,25.1,28,22.9
		c5.9-1.6,10.2-10.3,13.1-22.5c4.2-17.6,5.3-42.4,3.6-63.5c-3.7-46.9-21.4-74.4-17.2-77.4c4.6-3.3,31.2,27.6,45.9,69.5
		c9.9,28.1,11.9,53.9,12.1,71.5c16.2-10.9,32.8-30.5,45.5-56.6c26.7-54.5,11.3-116.3,15.5-116.8c4.5-0.6,20.6,69.5,28.4,160.8
		c0.4,4.6,0.8,9.2,1.1,13.5c1.8,23.4,3,41.1,5.7,41.2c2.8,0.1,5.8-18.4,8.7-41.1c4.7-36,9.3-82.6,13.3-82.3
		c4.7,0.3,2.1,66.5,8.7,82.5l7.5,0.1c7.5-10.9,17.2-45.8,22.6-77.8c11-65.7,3.6-117.8,4.8-118c3.3-0.4,35,87.2,20.9,179.9
		c-0.8,5.3-1.8,11-2.4,16.4c-0.9,8.6-0.7,16.2,3.4,19.7c7.4,6.4,26.6-2.1,42.3-19.3c7.9-8.6,14.9-19.5,19-31.7
		c15.1-44.6-22.3-94.2-18.6-96.7c3.9-2.6,38.5,52.6,70.2,127.8c0.2,0.4,0.4,0.9,0.5,1.3c3.7,9.8,4.7,23,9.5,23.4
		c4.2,0.4,9.3-8.9,13.7-23.2c5-16.2,9.3-38.9,10.7-61c2.8-43.4-6.2-74.8-4.7-75.2c1.1-0.4,11.2,103.9,28.5,136.6
		c3.1,5.9,6.5,9.5,10.1,9.7c3.8,0.2,7.8-3.3,11.7-9.4c10.5-16.4,20-51.2,21.8-82.9c0.7-12.4,0.2-24.2-0.7-34.3
		c-1.2-9-2.1-16.7-2.7-21.9c0.8,5,1.9,12.7,2.7,21.9c4.4,32.4,13.2,81.3,28.7,83.5c7.4,1,14.9-8.7,18.2-16.4
		c11.6-27-13.5-64.8-12.4-65.5c1.3-0.8,41.1,46,43.1,113.1c0,1.2,0.1,2.4,0.1,3.5c0.5,49.5-20.2,80.2-15.1,83.4
		c6,3.9,40.4-34.1,47.9-83.1c0.9-5.8,1.4-11.7,1.4-17.7c0.2-27.4-9.2-48.8-6.7-50c3.5-1.7,19.1,39.2,33.2,68
		c8,16.4,15.6,28.9,20.1,27.4c3.8-1.3,4.7-12.2,4.2-27.2c-1.1-36.1-10.1-95.5-4.9-96.9c3.6-1,11.4,92.8,30.6,94.7
		c12.7,1.2,29.4-37.5,32.7-75.1c5.9-67.3-32.5-117-28.6-119.9c4.2-3.1,54.4,52.1,70.4,137.2c5.1,26.9,5.2,48.8,6,61
		c0.4,6.8,1,10.7,2.7,10.9c1.8,0.2,4.3-3.7,7-10.8c7.4-19.5,15.9-63,12.4-109.3c-3.1-40.8-14.7-74.1-12.7-74.9
		c3.3-1.4,26,98.4,50.7,97.1c17.5-1,28.2-53,32-51.5c5.5,2.1-24.7,110.4-12.8,116.7c9,4.8,39.5-51.2,42.7-48.7
		c2.6,2-21.3,37.4-29.9,71.5c-3.8,14.9-4.6,29.6,1,41.2c7.6,15.8,26.5,24,40.6,20.5c17.4-4.4,28-30.9,34.6-60.9
		c9.7-43.9,11-95.2,13.2-94.9c2.5,0.4-8.9,69.1,1.7,95c1.6,3.9,3.7,6.8,6.4,8.4c7.1,4.1,18,0.5,29.3-8
		c13.7-10.3,28.1-27.9,37.2-47.9c14.2-31,15-65.7,12.1-93.5c9.4,53.3,24,127.7,35.6,127c7.9-0.5,14.4-36,15.5-61.4
		c0.7-16.3-0.7-31.2-2.2-42.1c-0.5-3.1-0.9-5.9-1.3-8.3c0.4,2.4,0.9,5.2,1.3,8.3c3.4,21.2,9.6,56.2,18.8,75.8
		c7.3,18.2,41-22.5,40.8-50.7c0-9.4,3.6-17.9,3.8-25.5c-1.1-13.6-1.4-22.6-1.6-24.6c0.3,2.1,2,11.7,1.6,24.6
		c1.9,22.9,6.1,58.8,15.4,95.3c0.2,0.8,0.4,1.6,0.6,2.5c9,34.5,30.9,100.8,45.5,97.9c12.3-2.5,22.6-54.4,10.1-99.8
		c-1-3.8-2.2-7.6-3.6-11.3c-12.5-33.3-35.8-51.7-33.7-54.8c4-5.7,72.5,68.6,93.1,51.2c11.1-9.3-0.3-37.8-3.2-116.3
		c-1.4-38.6-0.3-75.6,2.7-75.9c4-0.4,7.2,66.3,32.7,153.1c6.3,21.5,12.5,42.4,18.1,55c3.5,8,6.9,12.6,9.9,12.1c2.6-0.4,5.1-4.8,7-12
		c5.9-21.6,7.3-68.9-3.3-113.9c-11.1-46.9-30.3-70.1-28.2-71.9c4.2-3.5,86.5,75.2,80.6,162.5c-0.6,8.4-1.9,16.3-3.8,23.7
		c-11.9,47.1-45.2,74.8-37.3,85.8c8.5,11.8,57.8-5.1,77.4-46.4c5.8-12.3,8.5-25.7,9.2-38.9c2.3-41.8-14.5-82.3-12.6-83
		c1.9-0.7,13.9,42.1,26.6,83.1c11.8,38.1,24.3,74.7,30.1,73.3c5.8-1.4,5.1-40.7,4-72.9c-0.8-22.8-1.9-42.1-1.2-42.2
		c0.7,0-0.6,18.8,3.7,42.2c3,16.7,8.9,35.8,20.3,52.2c14.5,20.9,41.2,42.1,55.7,33c13.8-8.7,15.2-44.5,8.7-84.4
		c-3.6-22.3-9.8-45.9-17.6-66.8c-16.8-44.8-38.3-68.4-36.5-70.2c2.6-2.6,49.6,39.2,73.2,108.1c3.4,10,6.1,19.8,8.2,29.1
		c9.6,42.4,7.3,75.5,10.1,75.4c2.7-0.1,1.5-30,5.5-75.2c2.5-28.7,7.1-63.6,16-100.9c13.6-57,29.9-88.6,31-88.1
		c1.6,0.7-28.1,64.5-18.8,141c2.4,20.1,7.5,40.9,11.6,48.4c1.1,2,2.1,3,2.9,2.9c0.8-0.1,1.4-1.1,1.9-2.9c5-16.7,0.5-100.9,3.6-101.1
		c7.2-0.6,28.5,51,29.3,101.5c0.3,16.6-1.7,33.1-7.2,47.5c7-12,15.5-28.2,22.8-47.4c5.7-14.8,10.6-31.3,13.7-49.1
		c9.3-53.8-2.5-97.5,0.9-98.2c5.6-1.2,23.9,122,35.4,120.7c11.7-1.3,8.7-130.8,13.1-130.9c6.8-0.3,25.8,71.2,19.8,158.4
		c-0.9,13.6-2.5,27.5-4.8,41.6c-0.3,2.1-7.9,19.5-9.5,43.8c-0.5,7.3-1.9,28.6,3.2,30.7c7.6,3.1,27.5-35.4,38.8-64.6
		c6.7-17.3,11.6-34.5,15.2-51.2c16-74.5,5.5-137.3,8.3-137.6c3.2-0.3,8.4,81.6,15.8,137.9c3.8,29.3,8.2,51.7,13.2,51.8
		c4.8,0.1,12-20.5,15.7-51.5c3.9-33.1,3.9-78.1-7.3-122.7c-9.5-37.8-26.8-65.6-25.6-66.4c3.8-2.7,57.4,59.1,68.9,126.5
		c1.1,6.4,3.6,23.4,7.8,23.5c4.7,0.2,8-20.6,13.2-41.2c12.5-49.6,33.9-91.5,38.1-89.8c4.1,1.7-10.8,47-14.6,119.8
		c-0.9,17.4-1.2,36.2-0.7,51c0.5,15.8,1.8,27.1,4,27.4c2.3,0.3,5.7-11.5,9.2-27.3c5.1-23.2,10.5-55.1,13.1-70.4
		c5.1-30,8.9-58.2,11.5-57.9c3.6,0.4-4.4,52.5,17.2,106c1.8,4.4,6,14.9,10.6,22.9c3.6,6.2,7.4,10.9,10.5,10c2.3-0.6,4.2-4.2,5.5-9.9
		c3.7-15.5,2.8-46.5-7.8-72.8c-7.4-18.4-16.9-28.2-16.3-28.9c1.2-1.3,35.2,25.6,47.1,68.4c3.3,11.7,4.4,23,4.4,33.6
		c-0.1,36.5-15,64-8.8,67.6c7,4.2,36-26.1,46.3-67.2c2.2-8.7,3.5-17.8,3.6-27.2c0.4-38-19.1-63.1-16.1-65.3
		c4-2.8,41.6,36.6,41.6,85.4c0,2.5-0.1,5-0.3,7.4c-2.4,31.2-19,52.5-15.9,54.9c3.3,2.6,23.8-20.9,42.4-54.6c1.6-2.9,3.1-5.8,4.7-8.9
		c21.2-41.4,28-76.6,31.3-75.5c3,1-2.9,31.1-3.8,80.1c0,1.6-0.1,3.1-0.1,4.6c-0.6,32.1-0.4,49.5,6.4,52.7
		c9.4,4.4,30.1-18.2,36.9-44.9c0.6-2.5,1.1-4.9,1.5-7.4c2.6-17.3-1.7-35-11.9-68c-23-74.4-37.8-101.7-35-103.9
		c4.6-3.6,63.5,55.6,76.5,143c1.5,10.1,2.3,19.9,2.6,29.2c1.4,44.6-9,76.6-5.6,77.5c3.5,0.9,18.7-32.3,23.2-77.4
		c1-10,1.5-20.6,1.2-31.5c-1.7-66.3-30.6-107.8-25.6-111.3c5.2-3.5,40.9,38.3,52.7,97.6c3.5,17.8,3.3,33.4,2.4,45.5
		c-1.2,15.3-3.4,24.9-0.4,26c3.3,1.2,10.5-9,17.7-25.8c7.4-17.4,14.8-41.9,17.9-68.1c5.4-46.1-7.9-81.4-4.6-82.6
		c5.3-2,28.4,37.9,33.3,87.1c2.2,22.5,0.1,41.7,2.3,42c2.8,0.4,4.5-31.2,18.5-66.6c14.2-36.1,36.1-63.1,40-60.4
		c4.3,3-17.2,38.5-22.5,92c-1.5,15-3.3,38.3-2.5,57.4c0.7,16.3,3.3,29.6,9.7,32.1c8,3.1,21.8-10.6,33.4-31.7
		c7.7-13.9,14.4-31.1,18-48.8c6.7-33.6-0.1-59.8,3.1-60.4c3.7-0.7,15.6,33.1,16.2,72.3c0.4,20.6-2.5,34.4-0.2,35.1
		c1.2,0.4,3-3.4,5.7-10.4V928.5C2559.5,927.8,2559,927,2558.5,926.3z M543,1020.7c0.1,0,0.4,2.4,0.9,6.5
		C543.3,1023.1,542.9,1020.8,543,1020.7z M1076.5,988.8c-1.7-7.2-2.8-11.4-2.3-11.5C1074.4,977.2,1075.2,981.5,1076.5,988.8
		c2.2,9.4,5.3,23.9,7,41.1C1080.6,1013.1,1078.1,998.4,1076.5,988.8z M1129.4,1035.5c0.2,0,0.7,3.7,1.7,9.6
		C1130,1039.1,1129.2,1035.6,1129.4,1035.5z M1194.2,1028.1c0,0.1,0,0.2,0,0.3C1194.2,1028.3,1194.2,1028.2,1194.2,1028.1z"/>
</g>
</svg>
