<?xml version="1.0" encoding="utf-8"?>
<!-- Generator: Adobe Illustrator 25.2.1, SVG Export Plug-In . SVG Version: 6.00 Build 0)  -->
<svg version="1.1" id="Layer_1" xmlns="http://www.w3.org/2000/svg" xmlns:xlink="http://www.w3.org/1999/xlink" x="0px" y="0px"
	 viewBox="0 0 64 64" style="enable-background:new 0 0 64 64;" xml:space="preserve">
<style type="text/css">
	.st0{fill:#181E15;}
	.st1{fill:#2E3A29;}
	.st2{fill:#17657C;}
	.st3{fill:#726317;}
	.st4{fill:#4C420F;}
</style>
<g>
	<g>
		<rect y="0" class="st0" width="64" height="64"/>
	</g>
	<polyline class="st1" points="64,64 0,64 0,17.4 64,17.4 64,64 	"/>
	<g>
		<polyline class="st2" points="55,43.4 43.2,43.4 43.2,55.2 55,55.2 55,43.4 		"/>
		<polyline class="st2" points="37.9,26.3 26.1,26.3 26.1,38.1 37.9,38.1 37.9,26.3 		"/>
		<polyline class="st2" points="20.8,43.4 9,43.4 9,55.2 20.8,55.2 20.8,43.4 		"/>
	</g>
	<g>
		<g>
			<circle class="st3" cx="10.4" cy="8.8" r="4.8"/>
			<rect x="5.6" y="8.8" class="st4" width="9.6" height="8.6"/>
		</g>
		<g>
			<circle class="st3" cx="24.8" cy="8.8" r="4.8"/>
			<rect x="20" y="8.8" class="st4" width="9.6" height="8.6"/>
		</g>
		<g>
			<circle class="st3" cx="39.2" cy="8.8" r="4.8"/>
			<rect x="34.4" y="8.8" class="st4" width="9.6" height="8.6"/>
		</g>
		<g>
			<circle class="st3" cx="53.6" cy="8.8" r="4.8"/>
			<rect x="48.8" y="8.8" class="st4" width="9.6" height="8.6"/>
		</g>
	</g>
</g>
</svg>
